<svg width="74" height="63" viewBox="0 0 74 63" fill="none" xmlns="http://www.w3.org/2000/svg">
<path d="M24.6811 10.6396H6.98923V0.540245C6.98923 0.242001 6.75098 0.000225067 6.4571 0.000225067H3.49452L0 3.54655V10.6396V23.4222C0 24.3206 0.351632 25.1822 0.977455 25.8175L13.0008 38.0191C13.6268 38.6544 14.4758 39.0112 15.3611 39.0112H27.9569V13.9641C27.9569 12.1279 26.4903 10.6396 24.6811 10.6396Z" fill="#B6FF00"/>
<path d="M58.4311 23.8332L46.4078 11.6318C45.7818 10.9965 44.9328 10.6396 44.0475 10.6396H31.4517V39.0113V46.1041L34.9462 49.6506H37.9088C38.2026 49.6506 38.4409 49.4089 38.4409 49.1106V39.0113H56.1328C57.942 39.0113 59.4086 37.5227 59.4086 35.6867V26.2285C59.4086 25.3301 59.0569 24.4685 58.4311 23.8332Z" fill="#B6FF00"/>
<path d="M45.4005 48.2851C45.4005 48.5298 45.4607 48.5909 45.7018 48.5909H46.7081C47.0336 48.5909 47.172 48.4625 47.172 48.1262C47.172 47.7897 47.0336 47.6615 46.7322 47.6615H45.4005V48.2851ZM45.4005 46.8663H46.702C46.9974 46.8663 47.1177 46.7502 47.1177 46.4138C47.1177 46.1082 46.9974 45.9735 46.6961 45.9735H45.6716C45.4607 45.9735 45.4005 46.0348 45.4005 46.2488V46.8663ZM48.2808 48.2362C48.2808 48.9639 48.076 49.4226 47.2204 49.4226H44.9546C44.563 49.4226 44.3159 49.227 44.3159 48.7683V45.8023C44.3159 45.3438 44.563 45.142 44.9546 45.142H47.1599C47.8892 45.142 48.2024 45.515 48.2024 46.3284C48.2024 46.7747 48.0519 47.1476 47.5879 47.2272V47.2517C48.1301 47.3312 48.2808 47.6859 48.2808 48.2362Z" fill="white"/>
<path d="M52.3907 45.9734H50.2214C50.0105 45.9734 49.9382 46.0468 49.9382 46.2608V46.854H52.3364V47.649H49.9382V48.3033C49.9382 48.5173 50.0105 48.5907 50.2214 48.5907H52.4148V49.4224H49.4923C49.1006 49.4224 48.8535 49.2268 48.8535 48.768V45.8023C48.8535 45.3436 49.1006 45.1418 49.4923 45.1418H52.3907V45.9734Z" fill="white"/>
<path d="M52.8548 48.5665H55.1929C55.482 48.5665 55.4941 48.3769 55.4941 48.2729C55.4941 48.1262 55.4218 48.004 55.1688 47.9244L53.5176 47.423C52.9694 47.2579 52.8066 46.8238 52.8066 46.2244C52.8066 45.5823 53.0837 45.142 53.7828 45.142H56.3861V45.9981H54.2046C54.048 45.9981 53.9093 46.0593 53.9093 46.2793C53.9093 46.4444 53.9937 46.5607 54.2468 46.6402L55.7291 47.0805C56.3559 47.2641 56.6029 47.5819 56.6029 48.2851C56.6029 48.9639 56.3559 49.4226 55.6388 49.4226H52.8548V48.5665Z" fill="white"/>
<path d="M58.3504 49.4226V45.9981H56.7837V45.142H61.0019V45.9981H59.4352V49.4226H58.3504Z" fill="white"/>
<path d="M46.6358 53.4614C47.0879 53.4614 47.2263 53.284 47.2263 52.856C47.2263 52.4279 47.0879 52.2628 46.6358 52.2628H45.6838C45.4729 52.2628 45.4006 52.3361 45.4006 52.5502V53.4614H46.6358ZM44.3159 55.6873V52.0672C44.3159 51.6085 44.563 51.4067 44.9547 51.4067H47.1963C48.1303 51.4067 48.3351 51.9999 48.3351 52.856C48.3351 53.7121 48.1303 54.3175 47.1963 54.3175H45.4006V55.6873H44.3159Z" fill="white"/>
<path d="M49.4865 55.6875C49.0947 55.6875 48.8477 55.4919 48.8477 55.0332V51.4069H49.9324V54.544C49.9324 54.758 50.0047 54.8314 50.2156 54.8314H52.3848V55.6875H49.4865Z" fill="white"/>
<path d="M54.3431 53.8775H55.5906L55.0542 52.5199C55.0301 52.4526 55.0122 52.3855 54.9699 52.3855C54.9277 52.3855 54.9036 52.4526 54.8795 52.5199L54.3431 53.8775ZM54.1384 51.8594C54.2768 51.5231 54.4516 51.358 54.9699 51.358C55.3495 51.358 55.6267 51.4436 55.7954 51.8594L57.3742 55.6875H56.2353L55.8556 54.7091H54.0779L53.6984 55.6875H52.5657L54.1384 51.8594Z" fill="white"/>
<path d="M60.2847 51.4069H61.4417L59.634 54.44V55.6875H58.5554V54.44L56.7537 51.4069H57.9105L59.0977 53.4556L60.2847 51.4069Z" fill="white"/>
<path d="M65.1719 52.2386H63.0027C62.7918 52.2386 62.7193 52.3119 62.7193 52.5259V53.1191H65.1176V53.9141H62.7193V54.5685C62.7193 54.7825 62.7918 54.8558 63.0027 54.8558H65.196V55.6875H62.2734C61.8818 55.6875 61.6348 55.4919 61.6348 55.0332V52.0674C61.6348 51.6087 61.8818 51.4069 62.2734 51.4069H65.1719V52.2386Z" fill="white"/>
<path d="M65.7385 52.0672C65.7385 51.6085 65.9856 51.4067 66.3772 51.4067H68.6309C69.5046 51.4067 69.7577 51.9265 69.7577 52.8133C69.7577 53.5592 69.577 54.2868 68.7996 54.2868H68.4984V54.3175L69.842 55.6873H68.5105L67.5584 54.5744C67.4017 54.3971 67.1787 54.2075 67.1787 53.969V53.8712C67.1787 53.5592 67.4076 53.4858 67.7994 53.4858H68.1548C68.5587 53.4858 68.6489 53.278 68.6489 52.85C68.6489 52.4097 68.5225 52.2628 68.1128 52.2628H67.1064C66.8955 52.2628 66.8231 52.3361 66.8231 52.5502V55.6873H65.7385V52.0672Z" fill="white"/>
<path d="M70.252 54.8314H72.5901C72.8794 54.8314 72.8913 54.6418 72.8913 54.538C72.8913 54.3911 72.819 54.2689 72.566 54.1893L70.915 53.6879C70.3666 53.5228 70.2039 53.0887 70.2039 52.4893C70.2039 51.8472 70.4811 51.4069 71.1802 51.4069H73.7833V52.263H71.6018C71.4452 52.263 71.3066 52.3243 71.3066 52.5444C71.3066 52.7095 71.3909 52.8258 71.644 52.9051L73.1265 53.3454C73.7531 53.529 74.0001 53.8468 74.0001 54.55C74.0001 55.229 73.7531 55.6875 73.036 55.6875H70.252V54.8314Z" fill="white"/>
<path d="M46.0091 61.9517C44.593 61.9517 44.1953 61.1567 44.1953 59.8114C44.1953 58.4661 44.593 57.6711 46.0091 57.6711H47.7504V58.5272H46.5455C45.5812 58.5272 45.3039 58.7717 45.3039 59.8114C45.3039 60.8509 45.5812 61.0955 46.5455 61.0955H47.8109V61.9517H46.0091Z" fill="white"/>
<path d="M48.9198 61.9524C48.5282 61.9524 48.281 61.7568 48.281 61.2981V57.6718H49.3657V60.8089C49.3657 61.0229 49.438 61.0963 49.6489 61.0963H51.8182V61.9524H48.9198Z" fill="white"/>
<path d="M54.8735 60.2646V57.6718H55.958V60.3197C55.958 61.6039 55.229 62.0015 53.9936 62.0015C52.7584 62.0015 52.0293 61.6039 52.0293 60.3197V57.6718H53.1138V60.2646C53.1138 60.876 53.3911 61.1452 53.9936 61.1452C54.5963 61.1452 54.8735 60.876 54.8735 60.2646Z" fill="white"/>
<path d="M57.7056 60.8149C57.7056 61.0596 57.7659 61.1207 58.007 61.1207H59.0133C59.3387 61.1207 59.4772 60.9923 59.4772 60.656C59.4772 60.3195 59.3387 60.1913 59.0374 60.1913H57.7056V60.8149ZM57.7056 59.3963H59.0072C59.3026 59.3963 59.4229 59.28 59.4229 58.9436C59.4229 58.6379 59.3026 58.5033 59.0013 58.5033H57.9768C57.7659 58.5033 57.7056 58.5646 57.7056 58.7786V59.3963ZM60.586 60.766C60.586 61.4939 60.381 61.9524 59.5256 61.9524H57.2597C56.8681 61.9524 56.6211 61.7568 56.6211 61.2981V58.3321C56.6211 57.8736 56.8681 57.6718 57.2597 57.6718H59.4651C60.1944 57.6718 60.5076 58.0448 60.5076 58.8582C60.5076 59.3045 60.3571 59.6776 59.8931 59.757V59.7814C60.4353 59.861 60.586 60.2157 60.586 60.766Z" fill="white"/>
</svg>
